<?xml version="1.0" encoding="utf-8"?>
<svg xmlns="http://www.w3.org/2000/svg" xmlns:xlink="http://www.w3.org/1999/xlink" width="640"
    height="640" viewBox="200 180 640 640">
    <path fill="#DC2C49"
        d="M419.561 363.335C439.467 367.111 455.261 373.057 472.611 383.792C491.933 369.448 506.113 367.552 527.767 372.013C529.659 372.403 538.3 369.844 541.183 369.708C556.735 368.974 570.261 375.551 582.829 383.741C597.678 372.815 618.797 366.957 636.549 363.402C649.569 388.829 639.325 411.506 621.502 430.947C633.722 457.505 636.252 470.576 638.716 498.932C634.021 493.675 629.529 488.367 624.974 482.988C631.309 506.971 630.437 522.905 619.3 545.638C619.302 534.202 618.152 528.13 612.745 518.093C610.291 540.542 601.576 556.251 587.608 573.416C588.884 561.2 589.977 555.729 588.195 543.3C586.698 534.903 585.264 528.454 582.665 520.312C571.697 528.364 566.519 539.644 564.436 552.93C561.695 570.403 549.292 579.359 532.838 583.437C525.71 585.204 519.921 582.678 513.333 579.879C482.6 566.82 499.92 537.855 473.752 520.117C472.727 524.196 471.098 528.71 470.041 532.974C466.358 547.829 466.544 557.867 469.324 572.538C454.76 559.372 445.658 535.752 444.173 516.603C438.594 527.906 437.918 534.108 438.206 546.278C426.415 524.338 425.937 506.909 432.229 483.388C426.996 488.894 423.265 493.726 418.619 499.711C419.175 472.432 424.962 455.58 434.951 430.916C415.5 410.85 409.406 389.623 419.561 363.335ZM503.361 500.968C502.282 494.14 503.705 481.362 505.628 474.668C514.85 472.952 519.173 472.391 528.549 472.296C535.25 472.407 544.01 472.946 550.394 475.187C551.751 483.221 552.88 491.842 553.041 500.001C556.902 493.821 563.508 480.135 561.951 473.215C560.277 465.778 532.729 463.604 526.442 463.741C516.273 464.553 501.494 466.295 492.985 472.109C494.272 483.027 497.195 491.794 503.361 500.968ZM529.136 449.436C535.4 445.792 535.504 441.72 539.842 437.329C543.564 436.253 551.249 433.682 551.429 429.002C548.946 420.632 532.719 420.785 525.773 420.976C519.908 421.116 504.273 420.729 504.848 429.699C505.214 435.411 512.734 436.025 516.552 438.436C521.761 442.031 521.444 449.561 529.136 449.436ZM601.732 400.672C604.753 404.586 608.043 408.694 610.944 412.665C612.556 414.99 614.331 417.448 615.874 419.797C624.855 412.38 629.037 400.907 630.474 389.624C630.771 387.294 630.687 381.073 629.01 379.5C619.902 383.815 608.1 392.881 601.732 400.672ZM440.419 420.05C442.023 417.343 443.61 414.532 445.404 411.958C448.143 408.107 450.829 404.166 454.244 400.879C447.753 393.313 435.621 383.802 426.505 379.708C424.177 394.79 429.635 409.406 440.419 420.05ZM479.18 403.111C460.706 410.357 471.664 420.981 485.777 420.83C490.029 420.254 491.906 419.582 496.004 418.244C492.421 412.764 486.458 403.447 479.18 403.111ZM573.958 403.11C567.696 406.21 562.942 412.443 559.951 418.625C565.289 420.684 567.456 421.455 573.177 421.249C579.546 419.725 583.598 417.913 587.821 412.491C584.061 408.338 579.778 403.963 573.958 403.11ZM507.138 527.34C503.905 537.154 498.534 551.846 513.332 554.06C525.315 555.852 538.976 556.641 550.325 551.403C554.421 549.512 553.058 542.839 552.636 539.208C551.31 534.3 550.288 530.935 547.968 526.365C547.478 530.511 545.895 542.478 542.598 545.149C538.903 548.145 524.967 548.07 520.125 547.141C516.015 546.352 514.771 545.81 512.535 542.854C510.211 539.781 508.441 528.988 507.138 527.34Z" />
    <path fill="#DC2C49"
        d="M689.957 425.632C699.592 427.807 711.473 431.402 720.108 436.16C731.264 442.305 730.649 443.752 744.203 442.887C766.248 441.48 788.932 451.35 806.832 463.636C809.715 465.598 812.113 467.609 813.965 470.631C815.762 473.099 818.206 479.818 820.15 481.508C831.35 491.249 844.696 494.041 852.369 507.965C845.84 505.854 840.098 504.166 833.464 502.411C837.118 511.18 839.67 510.301 844.031 517.466C846.126 517.139 846.26 515.234 847.921 515.16C848.631 517.358 848.467 519.145 847.307 521.186C843.727 527.487 840.243 531.543 833.211 533.684C829.954 540.455 827.825 543.321 821.037 547.19C822.04 542.436 822.846 538.822 823.288 533.954C818.955 540.698 814.165 543.718 807 547.058C809.419 540.888 811.258 536.021 812.892 529.498C797.595 512.903 771.863 522.059 767.275 543.289C766.117 548.649 773.969 565.079 780.403 565.308C783.6 565.666 791.37 557.965 793.75 557.83C795.351 559.972 792.254 565.896 791.122 568.195C793.373 566.706 800.343 561.825 802.471 561.429C803.936 564.864 798.339 570.735 796.813 573.694C795.881 575.164 797.015 577.643 796.828 579.111C796.174 584.251 789.265 588.439 784.8 590.064C774.734 593.73 765.797 593.553 757.013 587.119C757.77 584.618 758.476 582.162 759.392 579.712C756.598 569.877 747.078 559.001 738.379 554.328C709.106 538.559 680.488 557.768 667.093 584.495C659.42 599.805 654.734 618.376 657.873 635.369C662.584 660.871 666.999 679.026 651.229 702.928C654.843 682.257 653.678 661.782 636.795 646.818L634.352 651.953C631.186 646.289 628.339 641.169 624.823 635.731C619.218 627.063 610.544 616.652 606.752 607.258C602.734 597.305 600.965 585.297 597.478 574.681C604.107 566.451 606.954 562.996 611.931 553.452L616.003 557.709C633.023 547.733 630.606 539.584 636.327 523.609C638.635 517.162 669.803 495.532 676.603 491.652C666.232 495.084 656.763 499.252 647.073 504.33C647.044 496.905 646.77 488.202 646.007 480.803C653.855 477.316 659.077 476.187 667.622 474.914C661.107 472.804 651.307 471.255 644.397 471.528L640.99 457.037C653.548 453.492 669.61 448.954 682.789 448.332C685.504 454.926 687.521 459.803 693.381 464.265C695.525 466.345 699.03 468.744 701.528 470.566C699.162 467.498 697.037 464.523 694.802 461.357C688.538 448.486 686.67 439.72 689.957 425.632ZM708.727 469.173L719.009 462.533L724.298 459.211C718.959 452.225 705.324 440.003 696.523 437.914C696.542 451.451 698.712 459.549 708.727 469.173ZM798.481 485.182L800.657 484.552C800.479 482.659 795.996 475.805 794.382 474.415C791.202 471.677 786.395 472.26 782.345 472.53L780.197 472.976C778.381 477.8 786.631 483.738 790.595 484.874C792.853 485.521 796.104 485.233 798.481 485.182Z" />
    <path fill="#DC2C49"
        d="M481.336 589.547C476.688 575.386 473.991 550.977 477.401 536.796C481.863 545.573 482.494 551.898 485.122 561.433C489.303 576.609 501.951 585.738 516.286 590.635C528.133 594.683 538.298 592.284 549.24 586.721C558.969 581.774 568.141 573.218 571.161 562.432C573.629 553.616 574.275 545.773 578.616 537.415C582.537 552.076 579.494 573.174 576.909 588.252C582.293 585.645 586.288 583.577 591.457 580.458C599.163 605.83 604.196 627.679 599.491 654.54C595.182 679.141 587.377 705.642 586.443 730.657C583.432 728.82 581.439 727.198 580.804 723.509C579.006 713.067 582.079 697.776 586.473 688.392C576.744 698.546 568.422 712.444 565.261 726.219C560.282 747.917 563.444 776.23 573.152 796.382C550.501 778.552 538.796 760.274 534.898 731.486C530.544 699.337 549.377 682.013 566.075 657.755C575.514 644.042 577.584 637.459 577.568 621.089L577.257 621.854C572.72 632.859 561.62 649.238 554.693 659.121C545.176 672.7 536.652 683.877 528.732 698.558C511.799 729.945 512.281 759.708 525.247 792.074C530.017 803.979 536.758 814.492 544.922 824.326C539.526 821.293 533.98 818.293 528.934 814.713C501.956 795.571 485.927 766.165 487.305 732.862C477.746 749.242 475.593 766.706 480.246 785.042C467.402 772.539 458.879 749.581 458.526 731.787C458.228 716.786 463.094 700.847 469.371 687.305C475.301 674.513 490.573 650.003 490.257 635.751C490.711 634.227 491.277 629.376 491.529 627.537C490.327 629.928 489.178 632.256 488.033 634.678C476.615 653.001 467.2 671.449 459.073 691.32C456.301 698.098 447.268 705.087 446.175 713.83C441.963 729.378 445.961 740.554 452.082 754.975C417.117 727.513 412.661 683.329 436.623 646.193C447.953 628.634 460.855 612.766 466.037 591.916C466.872 588.794 467.646 585.615 468.401 582.455C473.137 585.408 476.388 587.096 481.336 589.547Z" />
    <path fill="#DC2C49"
        d="M232.719 502.602C228.921 503.449 218.833 507.185 216.155 505.902L216.035 504.944C221.309 494.921 238.053 489.51 245.723 482.535C250.227 478.438 249.351 471.647 257.744 465.489C273.038 454.268 291.333 445.437 310.349 443.51C316.088 442.928 329.086 444.007 333.403 442.048C341.831 438.225 363.378 425.787 372.412 426.652C373.197 427.19 373.34 427.081 373.599 428.009C376.594 438.717 374.751 448.866 370.513 458.392C367.553 463.494 365.775 465.628 361.786 469.995C364.137 468.348 368.692 465.366 370.478 463.439C375.96 459.364 377.674 454.296 380.289 448.263C393.29 450.746 403.679 452.906 416.293 456.983C415.193 461.99 414.006 466.773 412.748 471.734C405.927 472.479 400.876 473.145 394.293 475C400.244 476.09 405.797 477.507 411.663 478.965C411.294 486.892 409.84 493.025 409.822 501.555C402.516 498.261 394.044 494.242 386.589 491.669C392.651 496.113 417.424 514.775 419.415 519.676C425.96 535.785 421.548 545.399 440.452 557.926L444.166 554.338C451.377 563.89 452.712 567.722 461.703 576.995C455.448 601.203 448.489 617.05 433.17 636.974C430.383 640.6 426.41 648.464 424.075 652.683L421.594 647.204C405.599 662.139 402.373 682.176 407.193 702.878C404.632 699.341 402.451 694.318 400.854 690.341C392.9 670.529 397.284 655.944 400.776 636.353C403.965 615.234 401.365 597.825 391.28 578.984C378.525 555.155 351.229 539.027 325.367 553.115C318.127 557.059 306.297 569.394 304.038 577.736C303.687 579.034 305.919 585.018 304.965 586.721C298.204 594.197 282.739 591.906 274.939 587.123C271.625 585.091 268.333 582.031 267.979 578.253C267.936 577.442 268.633 574.513 268.233 573.885C264.767 568.442 263.402 565.651 261.916 559.402C266.334 563.076 268.164 564.421 273.238 567.131C271.574 562.941 270.732 560.62 269.61 556.281C275.128 559.506 277.733 562.665 284.09 564.932C289.494 561.645 297.244 551.203 296.665 544.753C294.653 522.339 269.157 511.985 252.88 529.098C254.441 536.4 255.455 539.72 258.297 546.652C250.214 542.873 248.296 540.487 242.565 533.734C243.018 539.02 243.585 541.839 245.455 546.782L244.7 546.393C237.748 542.795 236.027 540.448 233.707 533.055L232.977 532.755C227.296 530.457 217.375 523.022 219.209 515.98C220.896 514.802 219.266 516.387 222.32 516.844C225.412 511.404 229.658 508.26 232.379 503.237L232.719 502.602ZM339.663 459.603L345.183 463.754C348.155 465.583 351.338 467.631 354.406 469.239C361.784 462.365 365.835 454.38 366.622 444.074C366.718 442.821 366.7 439.782 366.051 438.822C356.488 442.804 345.175 450.659 339.663 459.603ZM271.856 485.504C277.48 484.855 284.068 480.753 284.67 474.794C283.536 472.052 281.396 472.847 278.705 473C270.183 473.677 267.685 476.988 264.8 484.97C267.459 485.323 269.151 485.636 271.856 485.504Z" />
    <path fill="#DC2C49"
        d="M723.665 293.112C739.371 292.86 749.416 293.454 760.963 304.674C773.275 306.792 789.713 305.31 798.831 314.014C792.509 314.743 786.981 315.545 780.706 316.608C783.448 319 792.722 323.674 796.304 324.912C796.985 323.916 797.225 323.347 797.746 322.268L798.546 322.493C801.59 326.806 798.873 334.545 797.03 339.073C796.391 340.644 794.383 342.509 793.113 343.718C793.218 351.417 792.173 354.229 788.124 360.607C787.428 354.403 787.259 352.4 784.698 346.803C783.804 355.342 781.625 359.759 776.592 366.541C776.467 361.807 777.512 349.217 772.293 347.384C759.951 343.049 746.256 351.278 742.477 363.448C737.006 381.069 744.933 387.8 760.688 392.659C763.473 389.417 767.367 381.727 769.41 380.791L770.374 381.215C771.634 383.247 771.645 385.817 771.923 388.282C773.419 386.065 775.946 381.873 778.051 380.58L778.798 381.06C780.52 384.89 778.016 390.108 778.264 394.841C781.277 398.896 781.209 399.933 778.738 404.82C774.459 413.286 759.977 423.715 750.217 419.713C747.859 418.746 749.59 414.164 748.553 412.549C745.778 408.226 740.222 405.256 735.579 403.267C722.136 398.132 713.045 397.505 700.028 402.951C684.511 410.956 677.115 426.027 673.174 442.283C661.62 442.461 649.837 446.469 639.006 450.112C636.591 444.197 634.258 438.738 631.606 432.927C653.068 408.125 656.878 382.975 642.255 353.464C636.005 353.927 630.977 355.57 625.186 356.228C619.652 356.336 613.895 355.764 608.341 355.545C605.496 355.433 595.883 356.03 594.263 354.988L594.397 353.945C601.643 343.108 621.239 333.633 632.963 328.399C639.895 337.09 644.984 338.157 655.34 340.167C646.116 334.937 637.893 329.081 633.848 318.865C632.649 315.836 630.483 309.259 631.753 306.276C636.314 303.212 665.145 305.389 671.345 305.372C673.416 305.367 681.92 301.114 684.611 300C699.7 293.75 707.948 293.257 723.665 293.112ZM661.975 336.806C663.333 334.957 665.048 332.755 666.23 330.836C667.947 328.131 669.483 325.672 671.056 322.88C662.111 317.562 651.394 314.542 641.024 313.972C643.54 326.11 651.245 331.957 661.975 336.806ZM725.523 314.16C730.088 316.951 732.484 318.533 737.987 318.967C741.948 318.095 744.501 317.098 748.069 315.059C744.064 311.565 741.616 309.418 736.122 308.394C731.523 309.562 729.008 310.724 725.523 314.16Z" />
    <path fill="#DC2C49"
        d="M563.372 200.245C575.017 192.795 584.673 190.008 597.841 187.211C605.985 204.096 601.18 218.657 588.337 231.351C596.293 249.684 597.705 257.747 599.831 277.326C596.614 273.068 593.507 269.074 590.146 264.927C594.746 283.066 594.718 289.771 586.886 306.883C586.831 299.179 586.287 295.715 582.942 288.775C580.483 303.828 577.202 312.897 566.255 324.027C567.759 315.037 567.747 311.291 566.459 302.266C565.616 297.241 564.922 294.089 562.809 289.477C554.1 295.502 552.753 306.143 549.752 315.394C546.016 328.717 528.981 335.206 517.078 328.292C499.923 318.328 508.529 303.583 492.904 289.191C489.071 302.102 486.635 311.388 489.827 324.533C478.621 314.546 474.256 302.772 472.435 288.315C468.577 296.313 468.272 299.165 468.35 308.125C461.235 291.281 460.157 282.773 464.402 265.209C460.937 268.863 457.939 272.994 454.886 277.007C455.112 260.27 458.674 245.949 466.505 231.163C453.455 220.908 450.038 202.69 456.493 187.745C470.078 189.601 480.135 193.763 492.019 200.389C496.66 196.809 501.573 194.484 507.174 192.956C513.434 190.46 521.087 192.903 526.819 192.363C543.083 190.832 548.815 191.62 563.372 200.245ZM522.627 225.006C518.181 225.525 512.686 225.594 512.58 231.208C514.128 233.915 515.809 233.546 518.536 235.674C521.326 237.853 524.239 242.229 526.941 243.593C528.882 243.685 529.649 243.03 531.171 241.807L534.703 236.037C538.177 234.678 540.509 234.336 542.035 231.015C541.36 223.989 527.822 224.602 522.627 225.006ZM511.53 277.195C510.978 271.699 511.495 265.092 512.815 259.728C520.144 258.626 525.367 258.041 532.765 258.87C536.063 259.103 538.411 259.551 541.655 260.149C543.028 264.509 543.837 271.788 544.619 276.587C546.836 271.251 550.397 264.31 549.309 258.696C546.449 253.984 527.801 252.706 522.459 253.288C516.199 254.446 510.249 255.217 504.773 258.683C506.047 265.97 507.879 270.652 511.53 277.195ZM469.579 224.92C470.629 223.215 471.909 220.99 473.036 219.395C475.065 216.575 476.815 214.061 479.13 211.461C473.462 206.013 467.177 200.835 460.16 197.198C459.946 209.467 461.877 215.403 469.579 224.92ZM575.551 211.576C577.978 214.544 579.631 216.731 581.801 219.889L584.783 224.433C590.875 217.839 594.296 211.211 594.149 201.908C594.13 200.71 594.068 198.911 593.331 198.009C586.113 201.735 581.245 205.781 575.551 211.576ZM557.016 213.247C553.055 216.86 550.626 219.014 547.912 223.627C551.71 224.577 553.721 224.975 557.786 224.725C561.935 223.246 563.507 222.248 567.01 219.288C564.129 216.368 561.454 213.219 557.016 213.247ZM494.55 213.342C492.053 215.55 490.444 216.933 488.269 219.467C493.214 223.314 495.272 224.364 501.657 224.376C503.506 224.042 505.186 223.707 507.07 223.552C503.838 219.141 500.561 213.201 494.55 213.342ZM514.155 294.227C511.564 302.847 508.202 309.753 519.902 311.41C526.255 312.31 537.635 312.559 543.048 309.119C544.632 306.906 543.856 303.902 543.497 301.208C542.869 298.852 542.473 296.619 541.152 294.608L540.557 294.511L540.512 295.076C539.645 305.044 534.998 308.831 524.858 307.694C516.474 306.753 515.88 301.162 514.155 294.227Z" />
    <path fill="#DC2C49"
        d="M328 292.55C352.635 290 365.054 295.954 386.664 304.446C390.7 306.031 422.018 301.189 426.902 305.942C427.49 308.84 425.931 313.939 424.871 316.751C420.454 328.476 412.417 334.855 401.389 339.938C412.85 338.148 417.151 336.704 424.829 327.77C431.838 331.033 464.347 346.931 462.434 355.112C452.781 355.722 440.114 355.657 430.166 356.548C428.844 356.666 417.554 354.328 414.929 354.028C409.97 364.588 406.162 372.881 405.979 384.893C405.695 403.642 412.669 419.384 425.449 432.735C423.996 436.989 420.376 444.511 418.473 449.351C405.778 445.236 398.785 443.565 385.624 441.325C382.973 427.513 378.407 417.995 368.466 407.944C353.693 394.814 336.338 395.672 319.929 405.768C316.877 407.645 315.345 409.126 313.054 411.877C313.227 413.826 313.619 416.079 313.092 417.906C305.376 426.985 274.375 405.499 285.014 393.742C284.607 390.385 283.316 382.815 285.176 380.14L286.334 380.357C288.597 382.207 290.07 385.064 291.652 387.608C291.79 384.839 291.562 382.778 292.96 380.505L293.904 380.329C295.455 381.458 299.462 388.675 302.289 391.877C307.345 390.115 317.544 385.297 319.806 380.548C324.982 369.682 319.004 353.617 308.18 348.333C300.625 344.645 296.221 344.947 288.835 347.215C287.552 353.19 287.136 359.001 286.831 365.072C281.643 358.515 279.789 354.655 279.069 346.329C277.063 351.937 276.489 354.234 276.258 360.16C272.188 353.252 271.467 350.98 270.517 342.914C266.132 338.173 262.351 330.63 264.549 323.711C264.878 322.676 265.064 322.405 265.974 322.038L267.165 324.73C267.273 324.649 267.381 324.569 267.49 324.489L268.039 324.097C270.421 322.369 271.576 321.485 274.436 320.622C276.542 319.987 281.336 318.322 281.786 316.134C278.759 314.163 269.393 315.368 266.75 312.197L267.248 311.15C273.886 306.319 292.724 305.778 301.986 303.603L302.714 303.429C311.309 294.27 315.596 293.822 328 292.55ZM387.444 322.338C389.964 327.187 391.619 330.016 394.833 334.451C395.674 335.193 395.807 335.726 396.919 335.727C404.158 335.739 417.76 321.025 416.452 313.93C414.927 313.226 414.118 313.555 412.264 313.674C403.04 315.171 395.117 316.788 387.444 322.338ZM315.327 313.84C320.089 316.545 322.196 318.03 327.784 317.636C330.972 316.252 333.845 314.924 336.968 313.4C333.364 310.745 329.415 307.686 324.726 307.739C320.369 309.449 318.76 310.702 315.327 313.84Z" />
    <path fill="#DC2C49"
        d="M494.973 301.424C500.242 306.256 497.476 320.177 507.502 328.928C524.843 344.063 549.02 336.355 556.143 315.291C557.26 311.99 558.333 304.518 560.613 301.742L561.003 302.149C562.532 313.714 561.283 323.199 558.812 334.365C562.165 332.574 565.783 330.823 569.193 329.101C570.084 336.92 570.529 346.071 571.205 354.084L571.727 367.578C555.386 359.848 545.29 359.175 528.062 363.566C512.899 358.759 497.643 360.741 483.642 367.907C484.363 354.74 485.452 341.896 486.574 328.755C489.765 331.199 493.35 332.824 496.946 334.615C495.174 325.243 492.812 310.902 494.973 301.424Z" />
    <path fill="#DC2C49"
        d="M609.036 628.75C612.291 630.747 617.129 639.439 619.31 642.783C629.978 659.134 635.547 674.765 635.417 694.395C635.268 716.786 628.138 731.993 612.318 747.63C609.554 750.36 607.962 751.668 604.854 754.034C615.854 730.976 615.984 712.538 599.197 692.158C604.096 668.521 610.149 654.094 609.036 628.75Z" />
    <path fill="#DC2C49"
        d="M719.084 424.198C727.792 424.196 743.208 431.824 748.431 438.532C739.918 438.351 727.168 438.595 720.668 431.651C718.492 429.325 718.739 427.193 719.084 424.198Z" />
    <path fill="#DC2C49"
        d="M341.501 424.884C343.678 424.757 343.358 424.462 345.076 425.285C349.694 435.937 326.616 438.043 320.523 438.323C318.587 438.323 318.255 438.643 316.827 437.823C318.391 433.182 336.467 426.292 341.501 424.884Z" />
    <path fill="#DC2C49"
        d="M660.005 292.976C670.305 292.334 675.773 293.024 685.644 295.501C682.85 296.644 679.976 297.677 677.143 298.729C672.255 300.285 658.399 303.363 655.315 298.094C655.226 294.216 656.584 293.852 660.005 292.976Z" />
    <path fill="#DC2C49"
        d="M388.8 292.56C393.502 292.417 400.72 291.414 402.976 296.551C401.299 301.7 393.399 300.263 389.169 299.981C383.551 299.514 378.715 297.227 373.657 294.955C379.014 293.329 383.245 292.961 388.8 292.56Z" />
    <path fill="#FBF9FD" fill-opacity="0.0078431377"
        d="M361.786 469.995C365.775 465.628 367.553 463.494 370.513 458.392C372.373 462.158 371.178 460.081 370.478 463.439C368.692 465.366 364.137 468.348 361.786 469.995Z" />
    <path fill="#FBF9FD" fill-opacity="0.015686275"
        d="M694.802 461.357C697.037 464.523 699.162 467.498 701.528 470.566C699.03 468.744 695.525 466.345 693.381 464.265L693.555 463.944C693.432 462.986 693.437 462.963 693.443 462.027L694.802 461.357Z" />
    <defs>
        <linearGradient id="gradient_0" gradientUnits="userSpaceOnUse" x1="489.92789" y1="636.59485"
            x2="487.15622" y2="634.56268">
            <stop offset="0" stop-color="white" stop-opacity="0" />
            <stop offset="1" stop-color="#FCF6F7" stop-opacity="0.031372551" />
        </linearGradient>
    </defs>
    <path fill="url(#gradient_0)"
        d="M488.033 634.678C489.178 632.256 490.327 629.928 491.529 627.537C491.277 629.376 490.711 634.227 490.257 635.751L489.441 636.095C489.218 637.536 489.254 638.243 488.333 639.372L487.346 639.441L486.995 638.546C487.801 636.836 487.936 636.551 488.033 634.678Z" />
</svg>